# file written by OpenSceneGraph

mtllib octagon.mtl


g octagon.obj_0

o octagon.obj_Octagon_Octagon.001_Geometry_0
usemtl material_1

v 1.8 0.745584 0.010004
v 2 0.828427 0.010004
v 0.745584 1.8 0.010004
v 0.828427 2 0.010004
v -0.745584 1.8 0.010004
v -0.828427 2 0.010004
v -1.8 0.745584 0.010004
v -2 0.828427 0.010004
v -1.8 -0.745584 0.010004
v -2 -0.828427 0.010004
v -0.745584 -1.8 0.010004
v -0.828427 -2 0.010004
v 0.745584 -1.8 0.010004
v 0.828427 -2 0.010004
v 1.8 -0.745584 0.010004
v 2 -0.828427 0.010004
v 0.745584 -1.8 -0.0125
v 0.828427 -2 -0.0125
v -0.745584 -1.8 -0.0125
v -0.828427 -2 -0.0125
v -1.8 -0.745584 -0.0125
v -2 -0.828427 -0.0125
v -1.8 0.745584 -0.0125
v -2 0.828427 -0.0125
v -0.745584 1.8 -0.0125
v -0.828427 2 -0.0125
v 0.745584 1.8 -0.0125
v 0.828427 2 -0.0125
v 1.8 0.745584 -0.0125
v 2 0.828427 -0.0125
v 1.8 -0.745584 -0.0125
v 2 -0.828427 -0.0125
v -0.828427 2 0.010004
v 0.828427 2 0.010004
v -0.828427 2 -0.0125
v 0.828427 2 -0.0125
v -2 0.828427 0.010004
v -0.828427 2 0.010004
v -2 0.828427 -0.0125
v -0.828427 2 -0.0125
v -2 -0.828427 0.010004
v -2 0.828427 0.010004
v -2 -0.828427 -0.0125
v -2 0.828427 -0.0125
v -0.828427 -2 0.010004
v -2 -0.828427 0.010004
v -0.828427 -2 -0.0125
v -2 -0.828427 -0.0125
v 0.828427 -2 0.010004
v -0.828427 -2 0.010004
v 0.828427 -2 -0.0125
v -0.828427 -2 -0.0125
v 2 -0.828427 0.010004
v 0.828427 -2 0.010004
v 2 -0.828427 -0.0125
v 0.828427 -2 -0.0125
v 2 0.828427 0.010004
v 2 -0.828427 0.010004
v 2 0.828427 -0.0125
v 2 -0.828427 -0.0125
v 0.828427 2 0.010004
v 2 0.828427 0.010004
v 0.828427 2 -0.0125
v 2 0.828427 -0.0125
v 0.745584 -1.8 0.010004
v 1.8 -0.745584 0.010004
v 0.745584 -1.8 -0.0125
v 1.8 -0.745584 -0.0125
v 1.8 -0.745584 0.010004
v 1.8 0.745584 0.010004
v 1.8 -0.745584 -0.0125
v 1.8 0.745584 -0.0125
v 1.8 0.745584 0.010004
v 0.745584 1.8 0.010004
v 1.8 0.745584 -0.0125
v 0.745584 1.8 -0.0125
v 0.745584 1.8 0.010004
v -0.745584 1.8 0.010004
v 0.745584 1.8 -0.0125
v -0.745584 1.8 -0.0125
v -0.745584 1.8 0.010004
v -1.8 0.745584 0.010004
v -0.745584 1.8 -0.0125
v -1.8 0.745584 -0.0125
v -1.8 0.745584 0.010004
v -1.8 -0.745584 0.010004
v -1.8 0.745584 -0.0125
v -1.8 -0.745584 -0.0125
v -1.8 -0.745584 0.010004
v -0.745584 -1.8 0.010004
v -1.8 -0.745584 -0.0125
v -0.745584 -1.8 -0.0125
v -0.745584 -1.8 0.010004
v 0.745584 -1.8 0.010004
v -0.745584 -1.8 -0.0125
v 0.745584 -1.8 -0.0125
# 96 elements written

vn -0 -0 1
vn -0 -0 1
vn -0 -0 1
vn -0 -0 1
vn -0 -0 1
vn -0 -0 1
vn -0 -0 1
vn -0 -0 1
vn -0 -0 1
vn -0 -0 1
vn -0 -0 1
vn -0 -0 1
vn -0 -0 1
vn -0 -0 1
vn -0 -0 1
vn -0 -0 1
vn 0 0 -1
vn 0 0 -1
vn 0 0 -1
vn 0 0 -1
vn 0 0 -1
vn 0 0 -1
vn 0 0 -1
vn 0 0 -1
vn 0 0 -1
vn 0 0 -1
vn 0 0 -1
vn 0 0 -1
vn 0 0 -1
vn 0 0 -1
vn 0 0 -1
vn 0 0 -1
vn 0 1 0
vn 0 1 0
vn 0 1 0
vn 0 1 0
vn -0.7071 0.7071 0
vn -0.7071 0.7071 0
vn -0.7071 0.7071 0
vn -0.7071 0.7071 0
vn -1 -0 0
vn -1 -0 0
vn -1 -0 0
vn -1 -0 0
vn -0.7071 -0.7071 0
vn -0.7071 -0.7071 0
vn -0.7071 -0.7071 0
vn -0.7071 -0.7071 0
vn 0 -1 0
vn 0 -1 0
vn 0 -1 0
vn 0 -1 0
vn 0.7071 -0.7071 0
vn 0.7071 -0.7071 0
vn 0.7071 -0.7071 0
vn 0.7071 -0.7071 0
vn 1 -0 0
vn 1 -0 0
vn 1 -0 0
vn 1 -0 0
vn 0.7071 0.7071 0
vn 0.7071 0.7071 0
vn 0.7071 0.7071 0
vn 0.7071 0.7071 0
vn -0.7071 0.7071 0
vn -0.7071 0.7071 0
vn -0.7071 0.7071 0
vn -0.7071 0.7071 0
vn -1 -0 0
vn -1 -0 0
vn -1 -0 0
vn -1 -0 0
vn -0.7071 -0.7071 0
vn -0.7071 -0.7071 0
vn -0.7071 -0.7071 0
vn -0.7071 -0.7071 0
vn 0 -1 0
vn 0 -1 0
vn 0 -1 0
vn 0 -1 0
vn 0.7071 -0.7071 0
vn 0.7071 -0.7071 0
vn 0.7071 -0.7071 0
vn 0.7071 -0.7071 0
vn 1 -0 0
vn 1 -0 0
vn 1 -0 0
vn 1 -0 0
vn 0.7071 0.7071 0
vn 0.7071 0.7071 0
vn 0.7071 0.7071 0
vn 0.7071 0.7071 0
vn 0 1 0
vn 0 1 0
vn 0 1 0
vn 0 1 0
# 96 elements written
f 33//33 34//34 35//35 
f 34//34 36//36 35//35 
f 37//37 38//38 39//39 
f 38//38 40//40 39//39 
f 96//96 95//95 94//94 
f 95//95 93//93 94//94 
f 41//41 42//42 43//43 
f 42//42 44//44 43//43 
f 45//45 46//46 47//47 
f 46//46 48//48 47//47 
f 85//85 86//86 87//87 
f 86//86 88//88 87//87 
f 52//52 51//51 50//50 
f 51//51 49//49 50//50 
f 77//77 78//78 79//79 
f 78//78 80//80 79//79 
f 57//57 58//58 59//59 
f 58//58 60//60 59//59 
f 61//61 62//62 63//63 
f 62//62 64//64 63//63 
f 56//56 55//55 54//54 
f 55//55 53//53 54//54 
f 68//68 67//67 66//66 
f 67//67 65//65 66//66 
f 72//72 71//71 70//70 
f 71//71 69//69 70//70 
f 76//76 75//75 74//74 
f 75//75 73//73 74//74 
f 84//84 83//83 82//82 
f 83//83 81//81 82//82 
f 89//89 90//90 91//91 
f 90//90 92//92 91//91 
f 1//1 2//2 3//3 
f 2//2 4//4 3//3 
f 3//3 4//4 5//5 
f 4//4 6//6 5//5 
f 5//5 6//6 7//7 
f 6//6 8//8 7//7 
f 7//7 8//8 9//9 
f 8//8 10//10 9//9 
f 9//9 10//10 11//11 
f 10//10 12//12 11//11 
f 11//11 12//12 13//13 
f 12//12 14//14 13//13 
f 13//13 14//14 15//15 
f 14//14 16//16 15//15 
f 2//2 1//1 16//16 
f 1//1 15//15 16//16 
f 25//25 26//26 27//27 
f 26//26 28//28 27//27 
f 27//27 28//28 29//29 
f 28//28 30//30 29//29 
f 29//29 30//30 31//31 
f 30//30 32//32 31//31 
f 31//31 32//32 17//17 
f 32//32 18//18 17//17 
f 17//17 18//18 19//19 
f 18//18 20//20 19//19 
f 19//19 20//20 21//21 
f 20//20 22//22 21//21 
f 21//21 22//22 23//23 
f 22//22 24//24 23//23 
f 26//26 25//25 24//24 
f 25//25 23//23 24//24 
